<svg xmlns="http://www.w3.org/2000/svg" width="1200" height="900" viewBox="0 0 1200 900" role="img" aria-labelledby="title desc">
<title id="title">Executive branding across digital platforms</title>
<desc id="desc">Premium navy and gold device mockups showing a consistent executive brand.</desc>
<defs>
  <linearGradient id="bg" x1="0" y1="0" x2="1" y2="1"><stop stop-color="#071d35"/><stop offset="1" stop-color="#102f50"/></linearGradient>
  <linearGradient id="gold" x1="0" y1="0" x2="1" y2="1"><stop stop-color="#e2c17f"/><stop offset="1" stop-color="#a66e1c"/></linearGradient>
  <filter id="shadow" x="-30%" y="-30%" width="160%" height="160%"><feDropShadow dx="0" dy="24" stdDeviation="22" flood-color="#000" flood-opacity=".28"/></filter>
</defs>
<rect width="1200" height="900" fill="url(#bg)"/>
<circle cx="980" cy="110" r="240" fill="none" stroke="#c69643" stroke-opacity=".16" stroke-width="2"/>
<circle cx="980" cy="110" r="190" fill="none" stroke="#c69643" stroke-opacity=".12" stroke-width="2"/>
<text x="75" y="105" fill="#fffdfa" font-family="Georgia,serif" font-size="42" letter-spacing="7">PATSPHERE</text>
<text x="78" y="145" fill="#dfbe7d" font-family="Arial,sans-serif" font-size="18" letter-spacing="9">ADVISORY</text>
<text x="75" y="250" fill="#fffdfa" font-family="Georgia,serif" font-size="78">Executive</text>
<text x="75" y="325" fill="#dfbe7d" font-family="Georgia,serif" font-size="78">Branding</text>
<line x1="78" y1="360" x2="230" y2="360" stroke="#c69643" stroke-width="5"/>
<text x="75" y="420" fill="#e9edf2" font-family="Arial,sans-serif" font-size="27">Clarity. Consistency. Credibility.</text>
<text x="75" y="468" fill="#b9c5d1" font-family="Arial,sans-serif" font-size="22">A unified executive presence across</text>
<text x="75" y="502" fill="#b9c5d1" font-family="Arial,sans-serif" font-size="22">website, LinkedIn and social media.</text>
<g filter="url(#shadow)">
  <rect x="470" y="130" rx="24" width="640" height="410" fill="#1c2733" stroke="#c69643" stroke-width="3"/>
  <rect x="492" y="154" rx="12" width="596" height="342" fill="#f7f3eb"/>
  <rect x="492" y="154" rx="12" width="596" height="88" fill="#071d35"/>
  <text x="526" y="206" fill="#fffdfa" font-family="Georgia,serif" font-size="24">LEAD WITH CLARITY</text>
  <text x="526" y="274" fill="#071d35" font-family="Georgia,serif" font-size="42">Strategy. Leadership.</text>
  <text x="526" y="320" fill="#a66e1c" font-family="Georgia,serif" font-size="42">Meaningful Impact.</text>
  <rect x="526" y="365" width="210" height="16" rx="8" fill="#cfd6dd"/>
  <rect x="526" y="397" width="330" height="12" rx="6" fill="#dde2e7"/>
  <rect x="526" y="423" width="286" height="12" rx="6" fill="#dde2e7"/>
  <circle cx="988" cy="337" r="92" fill="#d9dde2"/>
  <circle cx="988" cy="309" r="38" fill="#31445a"/>
  <path d="M924 410c12-55 42-81 64-81s53 26 65 81" fill="#172f49"/>
  <rect x="445" y="540" rx="18" width="690" height="28" fill="#303944"/>
</g>
<g filter="url(#shadow)">
  <rect x="370" y="505" rx="26" width="500" height="290" fill="#222d39" stroke="#c69643" stroke-width="3" transform="rotate(-4 620 650)"/>
  <rect x="392" y="529" rx="16" width="456" height="244" fill="#fff" transform="rotate(-4 620 650)"/>
  <rect x="392" y="529" rx="16" width="456" height="72" fill="#071d35" transform="rotate(-4 620 650)"/>
  <circle cx="447" cy="625" r="36" fill="#d9dde2"/>
  <circle cx="447" cy="615" r="13" fill="#31445a"/>
  <path d="M421 649c5-22 16-32 26-32s22 10 27 32" fill="#172f49"/>
  <text x="500" y="618" fill="#071d35" font-family="Arial,sans-serif" font-size="22">Executive Profile</text>
  <rect x="500" y="641" width="250" height="12" rx="6" fill="#d5dbe1"/>
  <rect x="500" y="669" width="210" height="10" rx="5" fill="#e1e5e9"/>
</g>
<g filter="url(#shadow)">
  <rect x="900" y="475" rx="48" width="220" height="390" fill="#202a35" stroke="#c69643" stroke-width="3"/>
  <rect x="918" y="500" rx="34" width="184" height="340" fill="#fffdfa"/>
  <rect x="918" y="500" rx="34" width="184" height="92" fill="#071d35"/>
  <circle cx="964" cy="630" r="30" fill="#d9dde2"/>
  <circle cx="964" cy="620" r="11" fill="#31445a"/>
  <path d="M943 651c4-18 13-27 21-27s18 9 22 27" fill="#172f49"/>
  <rect x="1010" y="615" width="68" height="10" rx="5" fill="#cfd6dd"/>
  <rect x="1010" y="638" width="55" height="8" rx="4" fill="#e1e5e9"/>
  <rect x="936" y="695" width="148" height="82" rx="10" fill="#071d35"/>
  <line x1="985" y1="695" x2="985" y2="777" stroke="#c69643" stroke-opacity=".5"/>
  <line x1="1034" y1="695" x2="1034" y2="777" stroke="#c69643" stroke-opacity=".5"/>
</g>
<g transform="translate(75 590)">
  <circle cx="25" cy="25" r="24" fill="none" stroke="url(#gold)" stroke-width="3"/><path d="M14 25l8 8 15-18" fill="none" stroke="#dfbe7d" stroke-width="4"/>
  <text x="70" y="22" fill="#dfbe7d" font-family="Arial,sans-serif" font-size="20" letter-spacing="3">CLARITY</text>
  <text x="70" y="51" fill="#d7e0e8" font-family="Arial,sans-serif" font-size="18">Clear positioning</text>
</g>
<g transform="translate(75 690)">
  <circle cx="25" cy="25" r="24" fill="none" stroke="url(#gold)" stroke-width="3"/><rect x="15" y="15" width="20" height="20" rx="4" fill="none" stroke="#dfbe7d" stroke-width="3"/>
  <text x="70" y="22" fill="#dfbe7d" font-family="Arial,sans-serif" font-size="20" letter-spacing="3">CONSISTENCY</text>
  <text x="70" y="51" fill="#d7e0e8" font-family="Arial,sans-serif" font-size="18">One brand across platforms</text>
</g>
<text x="600" y="860" text-anchor="middle" fill="#dfbe7d" font-family="Georgia,serif" font-size="24" font-style="italic">Lead with clarity. Be remembered for impact.</text>
</svg>